<svg xmlns="http://www.w3.org/2000/svg" xmlns:xlink="http://www.w3.org/1999/xlink" viewBox="0 0 794.67 761.98"><defs><style>.cls-1{fill:none;clip-rule:evenodd;}.cls-2{fill:#7059f8;opacity:0.32;}.cls-3{fill:#4f8afa;}.cls-4{fill:#48547f;}.cls-10,.cls-11,.cls-4,.cls-5,.cls-7,.cls-8,.cls-9{fill-rule:evenodd;}.cls-5{fill:#faeff0;}.cls-6{clip-path:url(#clip-path);}.cls-7{fill:#f5dbe1;}.cls-8{fill:#fff;}.cls-9{fill:#7390fa;}.cls-10{fill:#e8edfd;}.cls-11{fill:#272629;}</style><clipPath id="clip-path"><path class="cls-1" d="M332.26,106.27s-1.35,11.48-6.11,17.08-14,16.34-16.53,24-5.94,24.53-5.94,24.53-5.67-3.31-8.16-6-11.24-2.59-9,13.79,11.75,20.86,16.79,25.09,12.37,2.53,12.37,2.53,6.48,15.7,9.22,21.76,13,10.44,13,10.44.48,4.58.85,8.75.54,15-1.59,23.15-9.38,19.45-9.38,19.45,1.46,21.07,24.06,45,37.46,28.32,46.66,16.12,19.48-50.07,19.86-51.73-1.05-11.55-1.05-11.55-9.2-21-11.72-36.13-2.35-33.08-2.35-33.08,3.68-2.18,4.51-9.67,2.28-24.6,3.06-28.65-.69-13.16-.69-13.16-12.29-18.37-21.52-23.59-25.76-12.48-33.77-16.07-10.94-6-14.28-12.45a27.15,27.15,0,0,0-8.23-9.63Z"/></clipPath></defs><g id="Camada_2" data-name="Camada 2"><g id="Camada_4" data-name="Camada 4"><path class="cls-2" d="M18.64,482.79h0A279.19,279.19,0,0,1,297.82,762v0a0,0,0,0,1,0,0H18.64a0,0,0,0,1,0,0V482.79A0,0,0,0,1,18.64,482.79Z" transform="translate(316.46 1244.77) rotate(180)"/><path class="cls-2" d="M784.68,508.67a5,5,0,1,1,5,5A5,5,0,0,1,784.68,508.67Z"/><path class="cls-2" d="M759.43,508.67a5,5,0,1,1,5,5A5,5,0,0,1,759.43,508.67Z"/><circle class="cls-2" cx="739.18" cy="508.67" r="4.99"/><path class="cls-2" d="M708.94,508.67a5,5,0,1,1,5,5A5,5,0,0,1,708.94,508.67Z"/><path class="cls-2" d="M784.68,487.79a5,5,0,1,1,5,5A5,5,0,0,1,784.68,487.79Z"/><path class="cls-2" d="M759.43,487.79a5,5,0,1,1,5,5A5,5,0,0,1,759.43,487.79Z"/><path class="cls-2" d="M734.19,487.79a5,5,0,1,1,5,5A5,5,0,0,1,734.19,487.79Z"/><path class="cls-2" d="M708.94,487.79a5,5,0,1,1,5,5A5,5,0,0,1,708.94,487.79Z"/><circle class="cls-2" cx="789.67" cy="466.9" r="4.99"/><path class="cls-2" d="M759.43,466.9a5,5,0,1,1,5,5A5,5,0,0,1,759.43,466.9Z"/><circle class="cls-2" cx="739.18" cy="466.9" r="4.99"/><path class="cls-2" d="M708.94,466.9a5,5,0,1,1,5,5A5,5,0,0,1,708.94,466.9Z"/><path class="cls-2" d="M784.68,446a5,5,0,1,1,5,5A5,5,0,0,1,784.68,446Z"/><path class="cls-2" d="M759.43,446a5,5,0,1,1,5,5A5,5,0,0,1,759.43,446Z"/><circle class="cls-2" cx="739.18" cy="446.02" r="4.99"/><circle class="cls-2" cx="713.94" cy="446.02" r="4.99"/><path class="cls-2" d="M784.68,425.14a5,5,0,1,1,5,5A5,5,0,0,1,784.68,425.14Z"/><path class="cls-2" d="M759.43,425.14a5,5,0,1,1,5,5A5,5,0,0,1,759.43,425.14Z"/><path class="cls-2" d="M734.19,425.14a5,5,0,1,1,5,5A5,5,0,0,1,734.19,425.14Z"/><path class="cls-2" d="M708.94,425.14a5,5,0,1,1,5,5A5,5,0,0,1,708.94,425.14Z"/><circle class="cls-2" cx="789.67" cy="404.26" r="4.99"/><path class="cls-2" d="M759.43,404.26a5,5,0,1,1,5,5A5,5,0,0,1,759.43,404.26Z"/><path class="cls-2" d="M734.19,404.26a5,5,0,1,1,5,5A5,5,0,0,1,734.19,404.26Z"/><circle class="cls-2" cx="713.94" cy="404.26" r="4.99"/><path class="cls-2" d="M784.68,383.38a5,5,0,1,1,5,5A5,5,0,0,1,784.68,383.38Z"/><circle class="cls-2" cx="764.43" cy="383.38" r="4.99"/><path class="cls-2" d="M734.19,383.38a5,5,0,1,1,5,5A5,5,0,0,1,734.19,383.38Z"/><circle class="cls-2" cx="713.94" cy="383.38" r="4.99"/><circle class="cls-2" cx="789.67" cy="362.5" r="4.99"/><path class="cls-2" d="M759.43,362.5a5,5,0,1,1,5,5A5,5,0,0,1,759.43,362.5Z"/><path class="cls-2" d="M734.19,362.5a5,5,0,1,1,5,5A5,5,0,0,1,734.19,362.5Z"/><path class="cls-2" d="M708.94,362.5a5,5,0,1,1,5,5A5,5,0,0,1,708.94,362.5Z"/><polygon class="cls-2" points="731.69 106.31 668.24 106.31 668.24 42.86 604.27 42.86 604.27 106.31 540.83 106.31 540.83 170.28 604.27 170.28 604.27 233.72 668.24 233.72 668.24 170.28 731.69 170.28 731.69 106.31"/><path class="cls-3" d="M64,183.89h0a0,0,0,0,1,0,0v64a0,0,0,0,1,0,0H0a0,0,0,0,1,0,0v0A64,64,0,0,1,64,183.89Z" transform="translate(247.87 183.89) rotate(90)"/><path class="cls-2" d="M66,170.28v-64h64a64,64,0,0,1-64,64Z"/><circle class="cls-3" cx="636.26" cy="633.49" r="58.27"/><circle class="cls-2" cx="496.5" cy="737.74" r="24.24"/><circle class="cls-2" cx="354.61" cy="4.99" r="4.99"/><circle class="cls-2" cx="354.61" cy="30.24" r="4.99"/><circle class="cls-2" cx="354.61" cy="55.48" r="4.99"/><path class="cls-2" d="M354.61,85.72a5,5,0,1,1,5-5A5,5,0,0,1,354.61,85.72Z"/><circle class="cls-2" cx="333.73" cy="4.99" r="4.99"/><circle class="cls-2" cx="333.73" cy="30.24" r="4.99"/><circle class="cls-2" cx="333.73" cy="55.48" r="4.99"/><path class="cls-2" d="M333.73,85.72a5,5,0,1,1,5-5A5,5,0,0,1,333.73,85.72Z"/><path class="cls-2" d="M312.85,10a5,5,0,1,1,5-5A5,5,0,0,1,312.85,10Z"/><path class="cls-2" d="M312.85,35.23a5,5,0,1,1,5-5A5,5,0,0,1,312.85,35.23Z"/><path class="cls-2" d="M312.85,60.48a5,5,0,1,1,5-5A5,5,0,0,1,312.85,60.48Z"/><path class="cls-2" d="M312.85,85.72a5,5,0,1,1,5-5A5,5,0,0,1,312.85,85.72Z"/><circle class="cls-2" cx="291.97" cy="4.99" r="4.99" transform="translate(-0.04 3.82) rotate(-0.75)"/><circle class="cls-2" cx="291.97" cy="30.24" r="4.99"/><circle class="cls-2" cx="291.97" cy="55.48" r="4.99"/><path class="cls-2" d="M292,85.72a5,5,0,1,1,5-5A5,5,0,0,1,292,85.72Z"/><circle class="cls-2" cx="271.09" cy="4.99" r="4.99"/><circle class="cls-2" cx="271.09" cy="30.24" r="4.99"/><circle class="cls-2" cx="271.09" cy="55.48" r="4.99"/><path class="cls-2" d="M271.09,85.72a5,5,0,1,1,5-5A5,5,0,0,1,271.09,85.72Z"/><path class="cls-2" d="M250.21,10a5,5,0,1,1,5-5A5,5,0,0,1,250.21,10Z"/><path class="cls-2" d="M250.21,35.23a5,5,0,1,1,5-5A5,5,0,0,1,250.21,35.23Z"/><path class="cls-2" d="M250.21,60.48a5,5,0,1,1,5-5A5,5,0,0,1,250.21,60.48Z"/><path class="cls-2" d="M250.21,85.72a5,5,0,1,1,5-5A5,5,0,0,1,250.21,85.72Z"/><circle class="cls-2" cx="229.33" cy="4.99" r="4.99"/><circle class="cls-2" cx="229.33" cy="30.24" r="4.99"/><circle class="cls-2" cx="229.33" cy="55.48" r="4.99"/><path class="cls-2" d="M229.33,85.72a5,5,0,1,1,5-5A5,5,0,0,1,229.33,85.72Z"/><circle class="cls-2" cx="208.45" cy="4.99" r="4.99"/><circle class="cls-2" cx="208.45" cy="30.24" r="4.99"/><circle class="cls-2" cx="208.45" cy="55.48" r="4.99"/><path class="cls-2" d="M208.45,85.72a5,5,0,1,1,5-5A5,5,0,0,1,208.45,85.72Z"/><path class="cls-4" d="M342.48,257.23s-10.08,5.06-12.93,4.79-11.8-2.57-13.39-3.43-3.85,1.3-6,.66-11.79-4.91-11.79-4.91-11.39,1.88-19.84-4.57S261.47,231.43,262,217.68s6.88-30.8,11.1-44.54a102,102,0,0,0,4.46-26.07c.06-1.09-2.06-23.69,9.86-39.85s17.92-21,23.07-22.28a63.44,63.44,0,0,1,10.91-1.44l6.27-7.86s18.41-20,36.77-17.32,24.78,7.77,29,10.28,14.44,13.62,14.44,13.62,14,21.91,20.48,30.59,24.65,24.36,28.11,38.62,7.57,16.83,6.65,34.38-4.75,27-7,32.74-8.44,15.2-13.93,18.54-13.86,4-13.86,4-9.9,2.46-14.5,3.73-8.42,3.13-29.48,8.74-41.78,3.65-41.78,3.65Z"/><path class="cls-5" d="M332.26,106.27s-1.35,11.48-6.11,17.08-14,16.34-16.53,24-5.94,24.53-5.94,24.53-5.67-3.31-8.16-6-11.24-2.59-9,13.79,11.75,20.86,16.79,25.09,12.37,2.53,12.37,2.53,6.48,15.7,9.22,21.76,13,10.44,13,10.44.48,4.58.85,8.75.54,15-1.59,23.15-9.38,19.45-9.38,19.45,1.46,21.07,24.06,45,37.46,28.32,46.66,16.12,19.48-50.07,19.86-51.73-1.05-11.55-1.05-11.55-9.2-21-11.72-36.13-2.35-33.08-2.35-33.08,3.68-2.18,4.51-9.67,2.28-24.6,3.06-28.65-.69-13.16-.69-13.16-12.29-18.37-21.52-23.59-25.76-12.48-33.77-16.07-10.94-6-14.28-12.45a27.15,27.15,0,0,0-8.23-9.63Z"/><g class="cls-6"><path class="cls-7" d="M333.88,185.76c8.77-1.14,16.58,3.18,17.42,9.64s-5.61,12.64-14.38,13.78-16.58-3.18-17.42-9.65,5.61-12.63,14.38-13.77Z"/><path class="cls-7" d="M398.8,175c8.78-1.14,16.58,3.18,17.42,9.65s-5.6,12.63-14.38,13.77-16.58-3.18-17.42-9.64S390,176.09,398.8,175Z"/></g><path class="cls-8" d="M153.24,555.32s14.6-64,18.47-80.35,16.2-65.44,22-80.89,17.46-41.5,24.51-50.43,27.84-19.78,36.05-22.94,48.89-19.5,57.8-23.86a102.44,102.44,0,0,0,17.43-11.43,91.22,91.22,0,0,0-1.4,13.08c-.08,5.93-.93,28.43,19.7,42.9s32.75,34.72,50.1,14.64,20.58-39.2,20.66-41.27-1.48-23.64-1.48-23.64-2.35-4.59,0-4.64,9.37,6.43,14.28,9.94,30.2,14.37,42.91,18.21,35.41,7.72,48.68,28.57,22.42,58.34,23,60.74,9,39.31,17.27,68.56,15.38,68,16.21,80.88,5,50.1,1,65.42-9.11,24.15-15.54,32-18.81,14.41-21.49,15.42-13,5.06-30,3.7-25.39-2-30.24-5.06-12-6.86-14.93-15.65a91,91,0,0,1-4-20.67c.11-.81-12.74-12.62-18.93-12.62s-68.66,14.85-71.64,17.54-55.13,50.75-55.13,50.75-8.63,3.93-12.32,2.49-25.4-7.09-27.16-7.06-36.4-10-36.4-10S200.55,657.56,194,655.4,167.71,641,159.87,625.93s-8.78-27.36-8.83-30-.25-23.53.4-28.74,1.8-11.9,1.8-11.9ZM232.61,577s8.5-13.06,10.9-23.21,7.76-23.56,7.76-23.56l.36,55.4-19-8.63Z"/><path class="cls-9" d="M330.76,349.88s-1.27-12.75-2.62-25.18-2.71-25.9-2.71-25.9l2.84-7.68s2.66,7,4,9.45S347.58,324.21,368,339s20.56,11.93,24.32,5.67,9.55-15.91,13.65-23S418,293.16,418,293.16s3.84,2.82,3.24,12,1.81,47.59,1.46,49.41,2,54.14,1.06,75.82-1.06,49-1.06,49-3.48,100.81-14.21,121.38-48.3,14.27-48.3,14.27l-4.8-21s-6.19-72.85-8.57-94.44-6.27-61.08-6.27-61.08l-9.79-88.68Z"/><path class="cls-10" d="M365.23,608.24s5.49-11.46,13.31-26.54,26.91-60.77,26.91-60.77,23.32-51.33,27.66-64,23.21-61,29-66.89,15-2.86,33.31-3.23,33.29,7.13,38.54,8.09,9.9.77,5.26,16.43-20.08,52.06-24.93,64.88-15.43,47.67-19.12,57.54-19.89,47.63-19.89,47.63-21.7,51.72-24.45,58-9,15.25-11,14.43-17.7-2.51-17.7-2.51-34.6-11.3-52.42-14.68-19.33-11.06-17.07-14.51,12.63-13.88,12.63-13.88Z"/><path class="cls-5" d="M478.27,632.86l7-51.73s-10.36-3.9-13.8-7-16-24.19-18.47-29.63S437.78,527.39,438.4,540s.72,16.24,3.64,21.33a63.28,63.28,0,0,1,4.41,9.3s-2.88,1.74-7.48-.27-22.75-7.07-31.8-12.56-11-13.3-12.81-13.33-4.59.23-5,3.47-2.95,1.73-4.32,5.85-2.81,4.33-3.53,6.8-1.35,5.69-2,7.44-2,4-1.23,10.31,11.26,20.47,27.18,30.1,35.13,15.14,46.62,18.88,26.18,5.52,26.18,5.52Z"/><path class="cls-5" d="M321.75,682.43c-1.71-.09-9.88-.4-10-2.23s.58-8.33,1.39-19.58,3.93-30.31,6.39-34.12,9.88-10.76,9.88-10.76,9.84,2.06,17.95-.93,19.87-10.45,24.27-12.12,14.66-4.16,15.13.6-4.18,7.92-8.52,11.68-20.84,10.64-20.84,10.64,12.69,2.83,39.73,2.58,29.62-2.05,32.45.38,1.38,5,1.38,5,3.88.71,4.55,2.64.76,5.05-1.32,8.83-2.95,6.47-5.88,10.07a85.86,85.86,0,0,1-11.58,11c-1.62,1-11.68,10.34-37.11,13.46s-56.14,2.95-57.85,2.86Z"/><path class="cls-11" d="M331.76,104.86c.08,5.64-2.09,10.33-5,14.72-3,4.57-6.76,8.82-9.72,13.41-7.06,10.94-13,23.52-13.78,36.7a1.09,1.09,0,1,0,2.18.12c.71-12.8,6.57-25,13.43-35.64,3-4.58,6.71-8.83,9.71-13.4,3.11-4.75,5.41-9.84,5.33-15.94a1.09,1.09,0,1,0-2.18,0Z"/><path class="cls-11" d="M334.56,105.88c1.24,9.09,10.08,19.26,18.31,23.24,2.89,1.4,6.22,1.84,9.18,3.07a215.94,215.94,0,0,1,19.74,9.55c23.25,12.59,37.52,39.42,37.52,65.61a1.09,1.09,0,1,0,2.17,0c0-27-14.72-54.56-38.65-67.52a217.9,217.9,0,0,0-19.95-9.65c-2.92-1.21-6.21-1.64-9.06-3-7.66-3.7-15.95-13.11-17.11-21.57a1.08,1.08,0,0,0-2.15.29Z"/><path class="cls-11" d="M408.48,169.05c-.2,2.38.18,4.79.1,7.18-.32,10.05-.19,20.85-2.09,30.89-1.86,9.85-5.69,19-14,25.85-2.53,2.11-4.85,4.39-7.71,6.06a1.09,1.09,0,0,0-.39,1.49,1.08,1.08,0,0,0,1.49.39c3-1.73,5.38-4.08,8-6.27,8.69-7.23,12.75-16.78,14.71-27.12,1.92-10.14,1.8-21.06,2.13-31.22.07-2.36-.31-4.72-.11-7.06a1.09,1.09,0,0,0-2.17-.19Z"/><path class="cls-11" d="M305,177.92a290,290,0,0,0,12.51,37c2.87,7,5.7,15.61,11.94,20.51a41.63,41.63,0,0,0,13.91,6.84c3.05.87,5.61,1,8.58,2.25a1.08,1.08,0,0,0,1.42-.57,1.09,1.09,0,0,0-.57-1.43c-3.06-1.31-5.69-1.45-8.83-2.34a39.56,39.56,0,0,1-13.17-6.46c-5.94-4.67-8.53-13-11.27-19.63a287.56,287.56,0,0,1-12.41-36.67,1.09,1.09,0,1,0-2.11.54Z"/><path class="cls-11" d="M304.64,173.82c-.59-.76-1.12-1.57-1.71-2.33-1.3-1.71-4.63-5.69-7.92-7.5-2.62-1.45-5.21-1.59-7.1.84a13.93,13.93,0,0,0-1.62,3.45,17.48,17.48,0,0,0-.78,4.64,38.55,38.55,0,0,0,0,5.48c.88,11.39,7.31,19.83,16.26,26.65,3.47,2.65,8.05,5,12.49,3.56a1.09,1.09,0,0,0-.69-2.07c-3.74,1.25-7.55-1-10.48-3.22-8.44-6.43-14.58-14.34-15.41-25.09a37,37,0,0,1,0-5.16,15.2,15.2,0,0,1,.67-4.07,11.28,11.28,0,0,1,1.28-2.83c1.15-1.48,2.74-1.15,4.33-.28,3,1.67,6,5.35,7.25,6.92.58.77,1.12,1.58,1.71,2.34a1.07,1.07,0,0,0,1.52.2,1.09,1.09,0,0,0,.2-1.53Z"/><path class="cls-11" d="M303.91,190.23l-.06,0a2.48,2.48,0,0,0-1.72,1.48,7,7,0,0,0,.17,4,11,11,0,0,0,2.85,5,1.09,1.09,0,0,0,1.3-1.74,8.68,8.68,0,0,1-2.06-3.83,4.74,4.74,0,0,1-.21-2.68c0-.09.15-.1.25-.12a.56.56,0,0,1,.42,0,11.16,11.16,0,0,1,1,.95,1.74,1.74,0,0,0,.56.34,1,1,0,0,0,1.29-.47,1.13,1.13,0,0,0,.1-1,7.54,7.54,0,0,0-1.46-2.37c-.51-.61-1.06-1.19-1.45-1.77-3.16-4.65-6.69-8-10.65-12a1.1,1.1,0,0,0-1.54,0,1.08,1.08,0,0,0,0,1.54c3.86,3.86,7.31,7.16,10.38,11.69a10.41,10.41,0,0,0,.81,1Z"/><path class="cls-11" d="M367.43,184.45a4.24,4.24,0,0,0,1.46,3.08,11,11,0,0,0,3.91,2.28A5.39,5.39,0,0,0,374,190c.18,0,.38,0,.5.17.55.88.21,2.16-.11,3.06a4.66,4.66,0,0,1-1.37,1.86,9,9,0,0,1-2.45,1.5,1.09,1.09,0,0,0,.86,2,11.37,11.37,0,0,0,3-1.87,7,7,0,0,0,2-2.77c.51-1.45.78-3.52-.11-4.94a2.38,2.38,0,0,0-1.79-1.14,7.12,7.12,0,0,1-1.1-.16A8.68,8.68,0,0,1,370.4,186a2.07,2.07,0,0,1-.79-1.46,1.09,1.09,0,0,0-2.18-.05Z"/><path class="cls-11" d="M353.08,206.22c5,5.41,15.36,7.77,22,4.38a1.09,1.09,0,1,0-1-1.94c-5.89,3-15,.86-19.44-3.91a1.09,1.09,0,0,0-1.54-.06,1.08,1.08,0,0,0-.06,1.53Z"/><path class="cls-11" d="M332.52,195.14c-11.14-1.86-21.11-13-21.87-24.33-.95-14,9.69-26.66,24.26-24.95a24.68,24.68,0,0,1,19.24,14c5.76,13.17.88,29.18-12.86,34.33a19,19,0,0,1-6.15.67,1.09,1.09,0,1,0,0,2.18,21.44,21.44,0,0,0,6.91-.81c14.93-5.6,20.35-22.94,14.09-37.24-3.59-8.2-12.11-14.24-21-15.28-16-1.88-27.72,11.91-26.69,27.26.83,12.26,11.63,24.31,23.69,26.32a1.09,1.09,0,0,0,.36-2.14Z"/><path class="cls-11" d="M388.54,185.11c-8.89-2.17-14.76-9.2-17.21-17.45s-1.48-17.89,3.45-25.11c2.85-4.16,7.72-6.67,12.45-8a21.09,21.09,0,0,1,8.4-.7c10.41,1.39,19,10.55,20.87,20.69a30.31,30.31,0,0,1-1.14,13.61c-2,7-6.54,13.9-13.82,16.33a23.51,23.51,0,0,1-9,.78,1.09,1.09,0,0,0-.15,2.18,25.71,25.71,0,0,0,9.79-.9c8-2.65,13-10.11,15.23-17.78a32.71,32.71,0,0,0,1.18-14.61c-2-11-11.4-20.94-22.72-22.46a23.1,23.1,0,0,0-9.28.77c-5.2,1.45-10.52,4.27-13.66,8.85-5.29,7.75-6.39,18-3.74,27s9.11,16.59,18.79,18.94a1.09,1.09,0,1,0,.51-2.11Z"/><path class="cls-11" d="M359,168.25a23.7,23.7,0,0,1,9.82-1.85,1.09,1.09,0,1,0,0-2.18,25.82,25.82,0,0,0-10.69,2,1.1,1.1,0,0,0-.56,1.44,1.09,1.09,0,0,0,1.43.56Z"/><path class="cls-11" d="M321,159.09c3.66-5.77,10.77-7.89,17.15-7.54a1.09,1.09,0,1,0,.12-2.17c-7.13-.4-15,2.1-19.11,8.54a1.1,1.1,0,0,0,.34,1.51,1.09,1.09,0,0,0,1.5-.34Z"/><path class="cls-11" d="M321.68,170.77a7.48,7.48,0,0,1,1.16-3.06,15.49,15.49,0,0,1,5.2-6.22c4.57-2.93,10.23-1.7,12.31,3.29a1.09,1.09,0,0,0,2-.84c-2.62-6.29-9.73-8-15.49-4.29a17.72,17.72,0,0,0-6,7,9.75,9.75,0,0,0-1.41,4,1.09,1.09,0,0,0,2.18.08Z"/><path class="cls-11" d="M330.24,160h0a1.09,1.09,0,0,0-1.53-.19c-2.85,2.19-4.07,7.12-3.29,11.3.82,4.38,3.71,7.84,8.67,6.85a4.26,4.26,0,0,0,2.51-1.62,7.82,7.82,0,0,0,1.52-3.73c.48-3.83.25-6.87-2.52-9.64-.63-.63-1.12-1.4-1.7-2a3.56,3.56,0,0,0-3.24-1.08l-.42.09Zm.85,15.56-.32,0,.43.16a1.74,1.74,0,0,1-.11-.18Z"/><path class="cls-11" d="M378.79,149.46a7.78,7.78,0,0,0,.67-.42,23.65,23.65,0,0,1,5.35-2.93c5.26-2.07,10.56-3.61,14.94.71a1.09,1.09,0,0,0,1.53-1.55c-5.07-5-11.18-3.59-17.27-1.19a26.32,26.32,0,0,0-5.81,3.18c-.42.29-.67.4-.83.53a1.68,1.68,0,0,0-.71,1.25,1.09,1.09,0,0,0,2.13.42Z"/><path class="cls-11" d="M380.76,158.69a1,1,0,0,1,.18-.68,4.33,4.33,0,0,1,.95-1.1,21.32,21.32,0,0,1,4.28-2.74c4.35-2.25,11.13-1.69,12.89,3.59a1.09,1.09,0,0,0,2.07-.69c-2.19-6.57-10.54-7.64-16-4.84a20.65,20.65,0,0,0-5.5,3.83,3.69,3.69,0,0,0-1.05,3.05,1.09,1.09,0,0,0,2.14-.42Z"/><path class="cls-11" d="M388.59,152a1,1,0,0,0-.24,0,4,4,0,0,0-2.72,1.38,8.39,8.39,0,0,0-1.8,3.66,26.07,26.07,0,0,0-.4,3,19.36,19.36,0,0,0,.8,7.58,5.83,5.83,0,0,0,3.15,3.61,5.64,5.64,0,0,0,3.75.05,9,9,0,0,0,4.14-3.33c2.35-3,3.55-8.45,1.56-12a9.63,9.63,0,0,0-4.95-3.58,6.49,6.49,0,0,0-3.29-.32Zm-2.35,14.76,0,.08a3.7,3.7,0,0,0,1.91,2.35,3.59,3.59,0,0,0,2.34,0,6.83,6.83,0,0,0,3-2.57c1.89-2.44,3-6.77,1.38-9.65a7.25,7.25,0,0,0-3.74-2.56,3.47,3.47,0,0,0-2.51-.15,3.89,3.89,0,0,0-1.61,1.8,11.42,11.42,0,0,0-1,4.27c-.1,1.84-.29,3.54.42,5.28a1.09,1.09,0,0,1-.23,1.17Z"/><path class="cls-11" d="M388,153.81a2.52,2.52,0,0,0-1.19.85,5.81,5.81,0,0,0-1,2,37.88,37.88,0,0,0-1,8.66,9.53,9.53,0,0,0-.05,2.32,1.69,1.69,0,0,0,1.14,1.26,1.67,1.67,0,0,0,.61.09l.1.22a1.16,1.16,0,0,0,1.65.51,1.2,1.2,0,0,0,.4-.39l.05.06a1.21,1.21,0,0,0,.94.39,1.53,1.53,0,0,0,.36-.07,1,1,0,0,0,.43.43,1.05,1.05,0,0,0,1.06,0,1.25,1.25,0,0,0,.46-.43,3.39,3.39,0,0,0,.27-.57,1.39,1.39,0,0,0,.3,0,1.52,1.52,0,0,0,1.37-.79,8.87,8.87,0,0,0,.51-1.75c.24-.76.49-1.53.71-2.33.51-.92.53-.85,1-1.83a1.1,1.1,0,0,0-.33-1.37,12.61,12.61,0,0,0,0-3.83,1.13,1.13,0,0,0-.55-.83,1.07,1.07,0,0,0-.9-.12l-.08,0A5.94,5.94,0,0,0,394,155a1.17,1.17,0,0,0-.73-.72,1,1,0,0,0-.6,0,1.69,1.69,0,0,0-.36-.23,1.39,1.39,0,0,0-.82-.15,1.44,1.44,0,0,0-.77.36,1.93,1.93,0,0,0-.54-1.06,1.21,1.21,0,0,0-.86-.38,1.18,1.18,0,0,0-.69.2,1.44,1.44,0,0,0-.5.59,1.85,1.85,0,0,0-.09.23Z"/><path class="cls-11" d="M391.19,156.15a8.62,8.62,0,0,1,.87-.11,1.48,1.48,0,0,1,.49,0c1.32.52,1.49,2,1.62,3.25a1.09,1.09,0,1,0,2.16-.22c-.21-2.06-.85-4.2-3-5.05a4.69,4.69,0,0,0-1.95-.13,5,5,0,0,0-1.59.4,1.09,1.09,0,0,0-.46,1.44,1.15,1.15,0,0,0,1.05.66,1.07,1.07,0,0,0,.78-.26Z"/><path class="cls-11" d="M388.09,170a2.58,2.58,0,0,1,.58.18,1.09,1.09,0,0,0,.53-2.11,4.79,4.79,0,0,0-1.11-.24,1.09,1.09,0,1,0,0,2.17Z"/><path class="cls-11" d="M327.77,161.07a3.44,3.44,0,0,0-2.27,2.3,13.86,13.86,0,0,0-.61,4c-.2,4.69,1.31,10.14,6.64,10.81.32,0,.81.14,1.27.17a2.91,2.91,0,0,0,1.25-.13,7.18,7.18,0,0,0,4.46-5.28A14.2,14.2,0,0,0,337,163a11.91,11.91,0,0,0-3.71-3.82,2.31,2.31,0,0,0-2.83.34A1.09,1.09,0,0,0,332,161c.07-.07.17,0,.27,0a2.85,2.85,0,0,1,.49.29,11,11,0,0,1,2.38,2.72,11.87,11.87,0,0,1,1.24,8.32,5.09,5.09,0,0,1-3.11,3.78,1.12,1.12,0,0,1-.51,0c-.36,0-.73-.11-1-.14a4.72,4.72,0,0,1-3.83-2.89,12.59,12.59,0,0,1-.9-5.67,11.53,11.53,0,0,1,.47-3.32c.16-.44.36-.85.79-1a1.09,1.09,0,0,0-.56-2.11Z"/><path class="cls-11" d="M331.6,176.76l.26-.16a1.08,1.08,0,0,0,1-1.08,1.09,1.09,0,0,0-1.09-1.09,3.21,3.21,0,0,0-1.62.68,1.5,1.5,0,0,0-.53.8,1.15,1.15,0,0,0,.12.74,1.1,1.1,0,0,0,.51.46,1.08,1.08,0,0,0,.85,0,1,1,0,0,0,.5-.37Zm-.78-1.74a1.18,1.18,0,0,0-.4,0,1.09,1.09,0,0,1,.4,0Z"/><path class="cls-11" d="M385,153.85a4.41,4.41,0,0,0-1.38,3.07,23.94,23.94,0,0,0,.9,7.18,1.09,1.09,0,0,0,2.11-.53,25.61,25.61,0,0,1-.88-5.51,6,6,0,0,1,.17-1.69,1.56,1.56,0,0,1,.45-.83,1.09,1.09,0,0,0-1.37-1.69Z"/><path class="cls-11" d="M320.32,82.7c-8.19-.75-15.07,2.76-20.91,8-5.67,5.08-10.35,11.79-14.32,17.59-3.64,5.32-5.65,12.07-6.9,19.26-1.82,10.54-2,22-3.42,31-1.17,7.33-2.5,14.82-4.93,21.87-4.55,13.19-9.95,25-8.78,39.4,1.27,15.44,9.95,30.39,25.33,34.92,4.85,1.43,8.41,2.49,13.54,1.26a1.08,1.08,0,0,0,.81-1.31,1.1,1.1,0,0,0-1.31-.81c-4.72,1.13-8,.09-12.43-1.23-14.5-4.27-22.58-18.45-23.76-33-1.16-14.09,4.21-25.61,8.65-38.51,2.48-7.17,3.84-14.78,5-22.24s1.52-16.71,2.64-25.68c1.1-8.78,3-17.32,7.32-23.68,3.88-5.67,8.44-12.23,14-17.19,5.38-4.82,11.69-8.13,19.25-7.44a1.09,1.09,0,1,0,.2-2.17Z"/><path class="cls-11" d="M288.68,238.07c1.39,2.05,2.39,5.89,3.45,7.92,2.66,5.07,5,8.42,7.95,10.53s6.78,3,12.41,3a1.09,1.09,0,0,0,0-2.18c-5.05,0-8.44-.72-11.15-2.64s-4.82-5.08-7.28-9.76c-1.1-2.09-2.15-6-3.57-8.13a1.09,1.09,0,0,0-1.81,1.22Z"/><path class="cls-11" d="M301.33,243.16c3.9,9,15.23,19.12,25.73,19.25a9.16,9.16,0,0,0,3.41-.76c1.51-.61,3-1.48,4.3-2a1.09,1.09,0,0,0,.6-1.42,1.08,1.08,0,0,0-1.41-.6c-1.09.43-2.32,1.11-3.59,1.68a8.11,8.11,0,0,1-3.29.91c-9.72-.12-20.14-9.61-23.75-17.93a1.09,1.09,0,0,0-2,.86Z"/><path class="cls-11" d="M336.12,239.16c4,20.82.67,34.47-9.12,52.41a1.09,1.09,0,0,0,.44,1.47,1.07,1.07,0,0,0,1.47-.43c10.06-18.43,13.43-32.47,9.35-53.86a1.09,1.09,0,1,0-2.14.41Z"/><path class="cls-11" d="M403.06,220.74a169.41,169.41,0,0,0,13.72,71.78,1.09,1.09,0,0,0,2-.86,167.27,167.27,0,0,1-13.54-70.85,1.09,1.09,0,0,0-2.18-.07Z"/><path class="cls-11" d="M412,218.2c-.12,2.93-.55,10.66-2.48,16.56a16.33,16.33,0,0,1-2.34,4.81,4.64,4.64,0,0,1-3.06,2,1.09,1.09,0,1,0,.26,2.16c2.59-.31,4.6-2.35,6-5.33,3-6.2,3.61-16.54,3.76-20.09a1.09,1.09,0,1,0-2.18-.1Z"/><path class="cls-11" d="M325.56,79.74c3.84-6.83,11.6-12.45,20.15-16s18-5.13,25.09-3.67c8.44,1.74,15.86,6.17,23.08,10.55,6.16,3.73,10.61,9.1,14.57,14.93s7.58,12.42,11.8,18.18C427.81,114,436.8,123,444.91,132.85c11.34,13.75,16.06,32.89,16.46,50.3.24,10.9-1.19,24.62-6,35.91-4.72,11.06-12.72,19.8-25.72,21a1.09,1.09,0,0,0,.2,2.17c13.87-1.29,22.48-10.52,27.52-22.33,4.95-11.58,6.44-25.63,6.18-36.81-.4-17.88-5.3-37.52-17-51.63-8.09-9.81-17-18.78-24.58-29.06-4.21-5.73-7.72-12.17-11.76-18.11-4.13-6.09-8.81-11.67-15.25-15.58-7.43-4.5-15.07-9-23.76-10.81-7.49-1.54-17.36,0-26.37,3.79s-17.15,9.77-21.21,17a1.1,1.1,0,0,0,.42,1.48,1.09,1.09,0,0,0,1.48-.42Z"/><path class="cls-11" d="M448.11,205.09c-1,11.17-4.28,20.46-10.21,27.16S423.52,243,412.26,243.86a1.09,1.09,0,0,0,.17,2.17c11.91-.92,20.86-5.29,27.1-12.34s9.74-16.72,10.75-28.42a1.09,1.09,0,0,0-1-1.17,1.08,1.08,0,0,0-1.17,1Z"/><path class="cls-11" d="M328.17,296.3c5.52,10.43,13.66,20.47,21.79,28.88,4.25,4.4,8.94,8.12,13.42,12.27,2.25,2.08,10.85,8.86,17.34,12.22a20.35,20.35,0,0,0,4.65,1.86,5.15,5.15,0,0,0,2.63,0c1.75-.59,3.32-2.2,4.67-4.21,1.79-2.68,3.23-6.07,4.44-8,6.95-11.13,14.06-22.77,18.78-35a1.1,1.1,0,0,0-.63-1.41,1.07,1.07,0,0,0-1.4.62c-4.67,12.13-11.72,23.64-18.6,34.65-1.2,1.93-2.62,5.3-4.4,8-1,1.56-2.19,2.9-3.55,3.35a2.88,2.88,0,0,1-1.47-.06,18.13,18.13,0,0,1-4.12-1.66,102.21,102.21,0,0,1-16.86-11.89c-4.45-4.12-9.11-7.81-13.34-12.18-8-8.27-16-18.13-21.42-28.39a1.09,1.09,0,0,0-1.93,1Z"/><path class="cls-11" d="M330.74,332.24C341.23,348.17,358,362,374.18,371.5c2.56,1.51,9.24,6.53,14.66,8.59,2.65,1,5,1.27,6.68.44,2.65-1.32,5.89-4.69,8.91-8.61,4.43-5.77,8.45-12.7,9.61-15.73a1.09,1.09,0,0,0-.62-1.41,1.1,1.1,0,0,0-1.41.63c-1.12,2.92-5,9.61-9.31,15.18-2.78,3.62-5.71,6.78-8.15,8a3.85,3.85,0,0,1-2.15.22,17.21,17.21,0,0,1-5-1.75c-4.78-2.34-9.91-6.16-12.06-7.43-15.9-9.39-32.42-22.93-42.74-38.59a1.09,1.09,0,1,0-1.81,1.2Z"/><path class="cls-11" d="M388.27,353.2c-.54,7.09,3.27,18.25,4.07,26.24a1.09,1.09,0,0,0,2.16-.22c-.79-7.88-4.59-18.86-4.06-25.86a1.09,1.09,0,1,0-2.17-.16Z"/><path class="cls-11" d="M417.79,296.09c4.74,25.51,2.74,51.56,3.73,77.32,1.14,29.44,1.85,58.68,0,88.14a1.09,1.09,0,1,0,2.17.13c1.85-29.53,1.14-58.84,0-88.35-1-25.87,1-52-3.76-77.64a1.09,1.09,0,0,0-1.27-.87,1.1,1.1,0,0,0-.88,1.27Z"/><path class="cls-11" d="M323.93,300.2c9.9,75.32,16,151.15,24.69,226.62,2.81,24.4,2.52,50.4,7.85,74.38a1.09,1.09,0,1,0,2.13-.47c-5.32-23.91-5-49.84-7.82-74.16-8.71-75.48-14.79-151.32-24.69-226.66a1.09,1.09,0,1,0-2.16.29Z"/><path class="cls-11" d="M416.87,353.19l1.89-3.26a64.85,64.85,0,0,0,3.73-7.63,1.09,1.09,0,0,0-2-.81,59.13,59.13,0,0,1-3.61,7.37s-1.39,2.19-1.88,3.24a3,3,0,0,0-.27.82,1.15,1.15,0,0,0,.07.52,1.08,1.08,0,0,0,2.1-.25Z"/><path class="cls-11" d="M416.88,287.23a10.07,10.07,0,0,1,3.62,1.83c2,1.44,3.91,3.3,5.59,4.56,6.43,4.83,14.18,8.47,21.38,12.07,14.16,7.08,30.15,10.54,45.14,15.54a74.71,74.71,0,0,1,14.61,6.43c1.44.89,2.57,2.33,4.07,3.08a1.09,1.09,0,1,0,1-1.95c-1.45-.72-2.52-2.13-3.91-3a77.06,77.06,0,0,0-15.06-6.65c-14.89-5-30.79-8.38-44.85-15.42-7.09-3.54-14.72-7.11-21.06-11.86-1.68-1.27-3.61-3.13-5.61-4.58a12.31,12.31,0,0,0-4.45-2.2,1.09,1.09,0,0,0-.45,2.13Z"/><path class="cls-11" d="M328,286.59h.07l.11.06a1.09,1.09,0,0,0,1-1.95,2.84,2.84,0,0,0-.58-.26,3.24,3.24,0,0,0-.63,0,3.49,3.49,0,0,0-.62,0,1.19,1.19,0,0,0-.57.29,5.11,5.11,0,0,1-.36.39c-9.38,9.39-24.51,14.32-36.45,20.29-20.53,10.27-44.34,13.81-62.84,28.35-19.57,15.37-27.16,42.71-35.55,65.07a436.56,436.56,0,0,0-20.16,73.27c-5.61,29.68-21,71.44-21.64,108.89-.45,25.27,5.77,48.57,25.89,65C189,657,205.12,658.1,220.87,663.62c28.24,9.88,57.3,17,86.4,22.85a1.09,1.09,0,1,0,.42-2.13c-29-5.8-58-12.93-86.1-22.78-15.51-5.43-31.39-6.47-44.53-17.22-19.58-16-25.53-38.73-25.09-63.31.66-37.33,16-78.95,21.6-108.52a434.55,434.55,0,0,1,20.06-72.92c8.26-22,15.6-49,34.85-64.11C246.87,321,270.55,317.56,291,307.36c12.14-6.07,27.48-11.16,37-20.7l.07-.07Z"/><path class="cls-11" d="M308.8,687.14a19,19,0,0,0,8.21-1.26,1.09,1.09,0,0,0-.81-2,16.4,16.4,0,0,1-7.14,1.11,1.09,1.09,0,0,0-.26,2.17Z"/><path class="cls-11" d="M315.93,680.7a1.57,1.57,0,0,1-.95.12,1.22,1.22,0,0,1-.69-.55,5.23,5.23,0,0,1-.68-1.63c-1.36-5.14.2-15.23.24-15.65.81-8,2-20.58,5.63-31.14C321.81,625,325.1,619,330,615.73a1.09,1.09,0,0,0-1.21-1.81c-5.24,3.5-8.86,9.89-11.36,17.23-3.64,10.72-4.92,23.46-5.74,31.63,0,.43-1.6,11-.18,16.42a5.28,5.28,0,0,0,2.29,3.48,3.4,3.4,0,0,0,2.93.05,1.09,1.09,0,0,0-.79-2Z"/><path class="cls-11" d="M212.37,566.7c23.57,18.1,53.89,26.7,83.39,30.54,7.08.93,19.23,1.73,27.8,5.68,5.38,2.47,9.34,6.19,9.34,12.16a1.09,1.09,0,1,0,2.17,0c0-6.89-4.4-11.29-10.6-14.14-8.77-4-21.18-4.91-28.43-5.85C266.92,591.29,237,582.85,213.7,565a1.09,1.09,0,0,0-1.33,1.73Z"/><path class="cls-11" d="M254.61,489.68c-4.76,30-4.43,63.06-4.43,93.64a1.09,1.09,0,1,0,2.17,0c0-30.47-.33-63.44,4.41-93.3a1.11,1.11,0,0,0-.91-1.25,1.09,1.09,0,0,0-1.24.91Z"/><path class="cls-11" d="M235.48,576.31c2.92-3.7,5.3-10.08,7.45-17.19,3.13-10.38,5.81-22.32,9.31-29.32a1.09,1.09,0,0,0-2-1c-3.54,7.09-6.28,19.17-9.45,29.67-2.05,6.8-4.27,12.93-7.07,16.47a1.09,1.09,0,0,0,1.71,1.35Z"/><path class="cls-11" d="M295.8,597.93a16.7,16.7,0,0,0-5.21,5.3c-2.2,3.23-4,7.09-5.42,9.53-4.7,8.28-10,22-12.4,35-1.64,8.79-2,17.29-.07,23.69a1.11,1.11,0,0,0,1.36.73,1.09,1.09,0,0,0,.73-1.36c-1.84-6.12-1.45-14.25.12-22.66,2.39-12.78,7.55-26.19,12.16-34.3,1.36-2.4,3.15-6.21,5.32-9.38a14.25,14.25,0,0,1,4.46-4.62,1.09,1.09,0,0,0-1.05-1.91Z"/><path class="cls-11" d="M330.45,617.61c3.64.62,7.63-.2,11.18-1a73.54,73.54,0,0,0,18-6.11c5.77-2.88,11.93-7.76,18.51-8.7a15.85,15.85,0,0,1,5.78.16,3.05,3.05,0,0,1,2.08,1.36,2.57,2.57,0,0,1,.07,1.82,10.1,10.1,0,0,1-1.1,2.49,5.1,5.1,0,0,1-1.27,1.31,21.9,21.9,0,0,0-1.8,1.49,39.59,39.59,0,0,1-10.09,6.93c-4.43,2.22-9,3.8-13.49,6a1.11,1.11,0,0,0-.49,1.47,1.09,1.09,0,0,0,1.46.48c4.46-2.23,9.07-3.8,13.5-6A41.83,41.83,0,0,0,383.42,612a19.45,19.45,0,0,1,1.62-1.33,7.06,7.06,0,0,0,1.77-1.89,12.64,12.64,0,0,0,1.35-3.08,4.73,4.73,0,0,0-.22-3.31,4.51,4.51,0,0,0-2.11-2c-2.33-1.14-6-1-8-.72-6.81,1-13.21,5.93-19.18,8.92a72,72,0,0,1-17.47,5.93c-3.29.73-7,1.54-10.34,1a1.09,1.09,0,0,0-.37,2.15Z"/><path class="cls-11" d="M354.79,625.66c2.44.71,4.7,1.79,7.27,2.23,7.72,1.36,15.68,1.13,23.49,1.13,7,0,14,.34,21,.34,4.13,0,8.21-.18,12.33-.45,3.37-.22,7.37-.43,10.43,1.31.54.31.5.93.38,1.52a7,7,0,0,1-1.07,2.37c-2.77,3.93-7.57,5.11-12.06,6.14-16.71,3.86-34.55,2.43-51.16-.89a1.09,1.09,0,1,0-.43,2.13c16.91,3.38,35.07,4.81,52.08.89,5-1.16,10.26-2.64,13.35-7a8.46,8.46,0,0,0,1.52-4,3.07,3.07,0,0,0-1.53-3c-3.43-2-7.89-1.84-11.65-1.59-4.08.26-8.11.44-12.19.44-7,0-14-.33-21-.33-7.69,0-15.52.23-23.12-1.1-2.48-.44-4.66-1.49-7-2.18a1.09,1.09,0,1,0-.6,2.09Z"/><path class="cls-11" d="M368.68,656.46c18.84-.11,38.31-1.27,56.33-7.08,3.53-1.14,8.72-3.35,11.2-6.24a6.7,6.7,0,0,0,1.47-4.43,5.4,5.4,0,0,0-2-4.29,1.09,1.09,0,0,0-1.3,1.75,3.24,3.24,0,0,1,1.11,2.58,4.52,4.52,0,0,1-.95,3c-2.26,2.63-7,4.55-10.21,5.58-17.82,5.75-37.06,6.88-55.68,7a1.09,1.09,0,1,0,0,2.17Z"/><path class="cls-11" d="M366.73,669.14s.38,0,.6,0c.67.07,1.43.21,1.79.22,2.23.08,4.52,0,6.75,0,5-.11,10-.78,14.93-1.35,5.39-.62,10.4-2.08,15.7-3.14,3.45-.69,7-1,10.28-2.53,5.2-2.42,10-6.16,14.75-9.33a1.09,1.09,0,0,0-1.21-1.82c-4.67,3.12-9.35,6.81-14.46,9.18-3.08,1.43-6.51,1.71-9.79,2.37-5.24,1.05-10.19,2.49-15.52,3.11-4.89.56-9.8,1.22-14.73,1.33-2.19,0-4.43.07-6.63,0-.39,0-1.31-.2-2-.24a2.89,2.89,0,0,0-1.19.13,1.09,1.09,0,0,0,.74,2Z"/><path class="cls-11" d="M320.36,682.71c5.74-.45,11.59.26,17.33.39A250.76,250.76,0,0,0,375.54,681c9.54-1.23,18.81-2.6,27.63-6.67,5-2.29,9.52-3.77,13.82-7.15,5.32-4.19,10.57-8.77,14.19-14.55.71-1.15,1.71-2.42,2.4-3.75a7.07,7.07,0,0,0,.89-3.19,1.09,1.09,0,0,0-2.18,0,5.61,5.61,0,0,1-1,2.78c-.63,1.06-1.41,2.07-2,3-3.48,5.58-8.56,10-13.68,14-4.17,3.28-8.59,4.68-13.39,6.9-8.61,4-17.68,5.28-27,6.48a247.7,247.7,0,0,1-37.52,2.11c-5.82-.13-11.73-.84-17.55-.38a1.08,1.08,0,0,0-1,1.17,1.1,1.1,0,0,0,1.17,1Z"/><path class="cls-11" d="M464.23,387c-3.78,3-7.1,8.65-10,15.08-4.2,9.37-7.53,20.42-10.33,27-5.51,12.95-11.45,25.66-17.47,38.35-11.61,24.44-19.5,50.9-31.59,75.07a1.09,1.09,0,0,0,1.95,1c12.1-24.19,20-50.66,31.6-75.11,6-12.72,12-25.46,17.52-38.44,2.79-6.55,6.11-17.59,10.31-26.95,2.72-6.07,5.78-11.43,9.35-14.27a1.09,1.09,0,0,0-1.36-1.7Z"/><path class="cls-11" d="M467.42,388.47c8.91-1.5,19.25-.23,28.26,0,11.86.36,22.35,3.09,33.51,6.28a42.7,42.7,0,0,0,5.72.69c1.66.19,3.28.49,4.18,1.62s1,2.9.84,4.79a72.44,72.44,0,0,1-1.78,8.89c-3.27,16.35-9.59,30.2-16.45,45.21a443.61,443.61,0,0,0-22.42,61.87c-1.46,5.14-2.46,11.9-5.23,16.51-1.5,2.51-10.46,22.56-14,32.26a22.75,22.75,0,0,0-1.48,5.24,1.09,1.09,0,1,0,2.17,0c0-1,1.21-4.29,2.88-8.51,4.05-10.25,11-25.7,12.28-27.87,2.86-4.77,3.94-11.73,5.46-17a441,441,0,0,1,22.3-61.57c6.93-15.16,13.3-29.16,16.6-45.68a74.1,74.1,0,0,0,1.82-9.14c.2-2.52-.11-4.84-1.31-6.33a7,7,0,0,0-4.4-2.24c-2.25-.41-4.84-.3-6.6-.8-11.34-3.24-22-6-34-6.36-9.16-.28-19.65-1.54-28.69,0a1.09,1.09,0,1,0,.36,2.15Z"/><path class="cls-11" d="M512.05,333.78c-6.58,3.84-10.52,12-12.45,19.05a1.09,1.09,0,1,0,2.11.57c1.78-6.59,5.34-14.18,11.44-17.74a1.09,1.09,0,1,0-1.1-1.88Z"/><path class="cls-11" d="M514.67,334.55c23,27.24,29.13,65.55,36.86,99.28,3,13.05,7,25.92,10.77,38.75,2.55,8.55,4.39,17.33,6.94,25.84.9,3,1.27,6.55,2.68,9.37a1.08,1.08,0,1,0,1.94-1c-1.35-2.71-1.67-6.14-2.53-9-2.55-8.51-4.39-17.3-6.94-25.85-3.8-12.78-7.75-25.6-10.74-38.61-7.8-34.06-14.06-72.7-37.31-100.19a1.09,1.09,0,0,0-1.67,1.4Z"/><path class="cls-11" d="M573.22,512.48c-.41,8.58,2.49,18.11,3.58,26.61a427.49,427.49,0,0,1,3.79,54.2c0,8.81.68,17.5-1.41,26.19-3.28,13.55-11.34,29.22-22.44,38-19,15-45.56,12.3-67.4,7.94-5.29-1.06-9.64-5.14-13.92-8a1.09,1.09,0,0,0-1.21,1.81c4.5,3,9.14,7.2,14.7,8.31,22.42,4.48,49.71,7,69.18-8.36,11.45-9,19.82-25.19,23.2-39.18,2.14-8.86,1.48-17.72,1.48-26.7A428.34,428.34,0,0,0,579,538.81c-1.07-8.38-4-17.77-3.56-26.23a1.09,1.09,0,0,0-2.18-.1Z"/><path class="cls-11" d="M484.86,573.55c-.95,5.21-.62,10.71-1.34,16-2.88,21.14-4.76,42.39-9.94,63.1a1.09,1.09,0,0,0,2.11.52c5.2-20.78,7.09-42.11,10-63.33.71-5.23.38-10.69,1.32-15.87a1.09,1.09,0,0,0-2.14-.39Z"/><path class="cls-11" d="M485,567.76c1.2,0,5.39.82,6,.89,5.52.69,9.51,1.94,12.36,4.46s4.5,6.27,5.54,11.86c4.54,24.53,5.27,55.06-2,79.19a1.09,1.09,0,0,0,2.09.62c7.33-24.44,6.62-55.36,2-80.2-1.15-6.19-3.1-10.31-6.24-13.1s-7.46-4.23-13.54-5c-.54-.07-4.07-.76-5.7-.89a2.84,2.84,0,0,0-1.45.2,1.09,1.09,0,0,0,.91,2Z"/><path class="cls-11" d="M504.52,572.62c9.58.53,19.72-.64,29.26-1.43a1.09,1.09,0,0,0-.19-2.17c-9.44.79-19.46,2-29,1.43a1.09,1.09,0,1,0-.12,2.17Z"/><path class="cls-11" d="M444.68,571.14a3,3,0,0,1-.46,0,9.25,9.25,0,0,1-1.21-.28c-2.61-.74-6.41-2.38-7.73-2.64a77,77,0,0,1-31.69-14.42,11.11,11.11,0,0,1-2-2.57,42.2,42.2,0,0,0-4.15-5.81,5.79,5.79,0,0,0-3.87-2.07,4.45,4.45,0,0,0-3,1.21c-2.42,2.07-2.83,4.8-2.36,7.58a36.79,36.79,0,0,0,2.36,7c5.32,13.6,14.46,16.75,26.86,23a1.09,1.09,0,0,0,1-1.94c-11.86-5.93-20.72-8.8-25.81-21.81a33.63,33.63,0,0,1-2.24-6.6c-.35-2-.14-4,1.63-5.57a2.36,2.36,0,0,1,1.55-.68,3.68,3.68,0,0,1,2.35,1.4,39,39,0,0,1,3.9,5.5,13,13,0,0,0,2.56,3.11,79,79,0,0,0,32.56,14.81c1.29.26,5,1.88,7.57,2.61a8.62,8.62,0,0,0,2.22.39,2.14,2.14,0,0,0,1-.2c3.09-1.55,2.38-5.13.13-7.38a.71.71,0,0,1-.16-.35c-.09-.3-.16-.65-.23-1a5.21,5.21,0,0,0-1.14-2.6c-1.07-1.08-2.09-3.35-3-5.93a42.56,42.56,0,0,1-2.34-11.27,42,42,0,0,1,0-5.52,6.05,6.05,0,0,1,.36-1.52,1.56,1.56,0,0,1,.53-.73c2.39-1.6,4.7-.64,6.66,1.09a24.8,24.8,0,0,1,5.15,7.17c5.13,10.25,11,22.2,19.09,30.27a14.26,14.26,0,0,0,6.58,3.33,38.85,38.85,0,0,1,6.2,1.83,1.09,1.09,0,1,0,.94-2,40.73,40.73,0,0,0-6.57-2,12.09,12.09,0,0,1-5.62-2.76c-7.91-7.92-13.64-19.66-18.67-29.7-1.45-2.92-4.1-7.05-7.26-9a6.61,6.61,0,0,0-7.71-.06,5.22,5.22,0,0,0-1.84,3.79,43.79,43.79,0,0,0,2.44,17.76c1,3,2.26,5.53,3.5,6.77a1.6,1.6,0,0,1,.34.69c.13.41.2.86.29,1.28a4,4,0,0,0,.89,2,4.77,4.77,0,0,1,1.2,1.93,1.52,1.52,0,0,1-.71,1.93Z"/><path class="cls-11" d="M387.82,548.65c-5.07,3.94-5.54,8.84-3.84,13.83,2.36,6.94,9.18,14.06,12.78,18.57,1.25,1.56,3.37,2.62,4.8,4.05a31.2,31.2,0,0,0,6.1,4.93,10.55,10.55,0,0,0,5.18,1.63,1.09,1.09,0,0,0,0-2.18,8.34,8.34,0,0,1-4.09-1.33,29.87,29.87,0,0,1-5.65-4.59c-1.37-1.38-3.44-2.37-4.64-3.87-2.92-3.65-8-9.05-11-14.66-2.73-5.18-3.59-10.56,1.68-14.66a1.09,1.09,0,0,0-1.33-1.72Z"/><path class="cls-11" d="M384.5,556.5a1.09,1.09,0,0,0,.06-2.17,2.21,2.21,0,0,0-1.65.65,9.4,9.4,0,0,0-1.65,2.37c-1.62,3.25-1.58,7.27-1,10.71,1.56,9.35,8.24,18.9,15.82,24.31,1.7,1.21,4.38,2.57,5.8,4a1.09,1.09,0,0,0,1.54-1.54c-1.49-1.49-4.29-3-6.08-4.23-7.14-5.09-13.46-14.08-14.93-22.88-.5-3-.61-6.54.81-9.39a7.79,7.79,0,0,1,1-1.54,3.39,3.39,0,0,1,.31-.28Z"/><path class="cls-11" d="M380.67,567.39a1.09,1.09,0,0,0-.91-2,2.5,2.5,0,0,0-1.18,1.22,15.5,15.5,0,0,0-.89,2.77,23.22,23.22,0,0,0-.64,10.22c1.48,8.85,8.86,14.93,14.77,20.84,2.58,2.58,6.37,6.08,9.78,7.54,7.68,3.29,17,9.92,24.74,12.51,9,3,18.45,5.45,27.77,7.94,5.64,1.5,11.44,2.25,17.07,3.66.93.23,2.47.43,3.76.76a3.68,3.68,0,0,1,1.52.62,1.08,1.08,0,0,0,1.54,0,1.1,1.1,0,0,0,0-1.54,4.74,4.74,0,0,0-1.83-1c-1.41-.45-3.36-.69-4.46-1-5.62-1.4-11.41-2.14-17-3.65-9.29-2.47-18.67-4.9-27.65-7.89-7.71-2.57-16.95-9.18-24.57-12.45-3.19-1.37-6.69-4.67-9.1-7.08-5.61-5.6-12.76-11.26-14.16-19.65a21,21,0,0,1,.58-9.27,19.13,19.13,0,0,1,.61-2.1,4.28,4.28,0,0,1,.28-.52Z"/><path class="cls-11" d="M464,632.76a29,29,0,0,0,6.3,23,1.09,1.09,0,0,0,1.7-1.36,26.9,26.9,0,0,1-5.85-21.31,1.09,1.09,0,0,0-2.15-.36Z"/><path class="cls-11" d="M376,581.25c-2,3.32-2.87,7.18-4.49,10.68-1.73,3.73-3.78,7.41-5.62,11.09a1.09,1.09,0,0,0,1.95,1c1.84-3.69,3.91-7.4,5.64-11.14,1.6-3.43,2.42-7.23,4.38-10.48a1.09,1.09,0,1,0-1.86-1.12Z"/><path class="cls-11" d="M454.36,627.74c-2.95,6.5-5.93,13.94-10.41,19.54-.59.74-1.25,1.84-2,2.87a6.2,6.2,0,0,1-1.92,2,1.22,1.22,0,0,1-.45,0,9.36,9.36,0,0,1-1.19-.13c-1.43-.25-3.06-.73-3.7-.9a1.09,1.09,0,0,0-.53,2.12,38.64,38.64,0,0,0,4.64,1,4.23,4.23,0,0,0,2.2-.2A7.09,7.09,0,0,0,443.3,652c.88-1.14,1.66-2.52,2.35-3.39,4.59-5.73,7.67-13.34,10.69-20a1.09,1.09,0,1,0-2-.91Z"/><path class="cls-11" d="M305.47,304.91c-2.7,18.24-4.3,36.5-6.28,54.76-.75,6.92-2,16.57,1.46,23,3.18,5.91,8.35,10.32,13.8,14.55,5.25,4.08,10.75,8,14.79,13a1.09,1.09,0,1,0,1.7-1.36c-4.14-5.17-9.77-9.2-15.16-13.39-5.2-4-10.18-8.22-13.22-13.86-3.27-6.07-1.91-15.2-1.21-21.73,2-18.24,3.58-36.47,6.27-54.68a1.09,1.09,0,1,0-2.15-.32Z"/><path class="cls-11" d="M319.84,406.86c-1.73,4.6-4.91,10.06-7,15.53-1.47,3.82-2.44,7.65-2.16,11.23s1.95,6.93,3.93,10.3c1.86,3.18,4,6.27,5.2,9.2,6.57,15.76,14.14,31,20.49,46.84a1.1,1.1,0,0,0,1.42.61,1.08,1.08,0,0,0,.6-1.42c-6.35-15.89-13.93-31.09-20.5-46.87-1.26-3-3.42-6.2-5.33-9.46-1.81-3.07-3.4-6.21-3.64-9.37-.32-4.12,1.22-8.59,3.15-13,2-4.56,4.47-9,5.92-12.86a1.1,1.1,0,0,0-.64-1.41,1.09,1.09,0,0,0-1.4.64Z"/><path class="cls-11" d="M446.61,308a1.1,1.1,0,0,0-.78-1.24,1.08,1.08,0,0,0-1.34.75,2.32,2.32,0,0,0-.06.72c0,.48.1,1.3.23,2.37.71,5.87,2.9,19.45,3.08,21.83.77,9.69,4.68,20.68,3.47,30.4-1.54,12.29-15.58,31.23-23.92,39.57a1.09,1.09,0,0,0,1.54,1.54c8.59-8.59,23-28.18,24.54-40.84,1.23-9.86-2.68-21-3.46-30.84-.19-2.39-2.37-16-3.09-21.92-.14-1.14-.21-2.22-.21-2.34Z"/><path class="cls-11" d="M438.53,395.82a1.08,1.08,0,0,0-2-.83,2.84,2.84,0,0,0,0,1.94,32.6,32.6,0,0,0,1.43,3.2c2.28,5.7,3.53,11.5,5,17.43a1.09,1.09,0,1,0,2.11-.53c-1.5-6-2.79-11.92-5.1-17.71-.2-.49-.83-1.6-1.22-2.6a7.44,7.44,0,0,1-.24-.9Z"/><path class="cls-11" d="M221.83,348.18c10.6,22.26,16.06,45,22.28,68.86a1.09,1.09,0,0,0,2.11-.55c-6.26-24-11.76-46.86-22.42-69.25a1.09,1.09,0,0,0-2,.94Z"/></g></g></svg>