<svg xmlns="http://www.w3.org/2000/svg" viewBox="0 0 223.74 70.47"><defs><style>.cls-1{font-size:40px;fill:#fcfcfc;font-family:Gotham-Bold, Gotham;font-weight:700;}.cls-2,.cls-3{fill:#1447e6;}.cls-3{letter-spacing:-0.01em;}</style></defs><g id="Camada_2" data-name="Camada 2"><g id="Camada_3" data-name="Camada 3"><text class="cls-1" transform="translate(37.12 49.83)">Medi<tspan class="cls-2" x="98.32" y="0">ca</tspan><tspan class="cls-3" x="144.84" y="0">r</tspan><tspan class="cls-2" x="160.96" y="0">e</tspan></text><path class="cls-2" d="M15.49,20.91c2.12.91,2.89,2.55,2.76,4.81-.12,2,0,4,0,6.13,2.2,0,4.31,0,6.42,0a8.44,8.44,0,0,1,1.59.08,3.63,3.63,0,0,1-.6,7.18c-2,.06-4,0-6,0H18.22v7.07a3.64,3.64,0,1,1-7.27.25c-.07-2.38,0-4.77,0-7.32H7.3c-.83,0-1.67-.07-2.5,0A4.3,4.3,0,0,1,0,36.4V34.58c.91-2.12,2.53-2.89,4.79-2.76,2,.12,4.05,0,6.14,0,0-2.15.09-4.16,0-6.15-.13-2.25.64-3.88,2.76-4.79Z"/></g></g></svg>